<svg xmlns="http://www.w3.org/2000/svg" viewBox="0 0 200 200"><defs><style>.cls-1{fill:#014951;}.cls-2{fill:#37bbd1;}</style></defs><g id="Capa_2" data-name="Capa 2"><g id="Icono"><rect class="cls-1" width="200" height="200" rx="12.31"/><path class="cls-2" d="M53.9,27.06h16V138.94h-16Z"/><path class="cls-2" d="M91.78,176.5V65.26H117.3q19.61,0,30.52,9.77t10.92,27.31q0,16.57-10.28,27.23t-26.19,10.65a45.91,45.91,0,0,1-15.59-3.12v39.4ZM117,78.87H106.68V124.2a30.34,30.34,0,0,0,14.06,3.45,21.69,21.69,0,0,0,16.75-7.13Q144,113.4,144,102.18a25.78,25.78,0,0,0-3.08-12.74,18.6,18.6,0,0,0-8.39-8Q127.22,78.86,117,78.87Z"/></g></g></svg>