<svg xmlns="http://www.w3.org/2000/svg" xmlns:xlink="http://www.w3.org/1999/xlink" viewBox="0 0 222 222"><defs><style>.cls-1{fill:none;}.cls-2{fill:url(#Degradado_sin_nombre_557);}.cls-3{fill:url(#Degradado_sin_nombre_557-2);}.cls-4{fill:url(#Degradado_sin_nombre_557-3);}.cls-5,.cls-6{opacity:0.48;}.cls-5{fill:url(#Degradado_sin_nombre_494);}.cls-6{fill:url(#Degradado_sin_nombre_493);}</style><linearGradient id="Degradado_sin_nombre_557" x1="33.11" y1="30.32" x2="62.82" y2="16.46" gradientUnits="userSpaceOnUse"><stop offset="0" stop-color="#57b0ca"/><stop offset="1" stop-color="#dff2fd"/></linearGradient><linearGradient id="Degradado_sin_nombre_557-2" x1="31.77" y1="107.73" x2="82.15" y2="84.24" xlink:href="#Degradado_sin_nombre_557"/><linearGradient id="Degradado_sin_nombre_557-3" x1="53.78" y1="149.98" x2="193.47" y2="84.84" xlink:href="#Degradado_sin_nombre_557"/><linearGradient id="Degradado_sin_nombre_494" x1="66.98" y1="127.57" x2="73.54" y2="127.57" gradientUnits="userSpaceOnUse"><stop offset="0" stop-color="#4799ae" stop-opacity="0"/><stop offset="1"/></linearGradient><linearGradient id="Degradado_sin_nombre_493" x1="102.17" y1="135.27" x2="121.08" y2="135.27" gradientUnits="userSpaceOnUse"><stop offset="0.02"/><stop offset="0.14" stop-color="#152d33" stop-opacity="0.7"/><stop offset="0.98" stop-color="#4594a9" stop-opacity="0.02"/></linearGradient></defs><g id="Capa_2" data-name="Capa 2"><g id="Icono"><rect class="cls-1" width="222" height="222" rx="13.66"/><circle class="cls-2" cx="47.97" cy="23.39" r="16.39"/><path class="cls-3" d="M72.05,112.83c-5.5-5.15-7.69-12.47-7.69-20.6V46.08H32.84V98.39h0a52.33,52.33,0,0,0,40.7,51Z"/><path class="cls-4" d="M131.47,32.21c-32.76-.16-59.55,27.56-59.55,60.32,0,3.8,0,6.91.08,11.45l.06,8.86,1.49,36.56.26,43.54L102.17,215V153.23l.06-2.52h27.89c32.84,0,60.55-26.88,60.3-59.72A59.26,59.26,0,0,0,131.47,32.21Zm-.94,87.61H102.77l0-1.89V92.1c0-15.6,12.32-28.76,27.93-29a28.35,28.35,0,0,1,28.79,28.79C159.29,107.5,146.13,119.82,130.53,119.82Z"/><path class="cls-5" d="M72.05,112.83s-2.44-1.63-5.07-7.09L68.49,148l5.05,1.42Z"/><path class="cls-6" d="M102.77,119.82h15.84l2.47,30.89H102.17"/></g></g></svg>