<svg xmlns="http://www.w3.org/2000/svg" xmlns:xlink="http://www.w3.org/1999/xlink" viewBox="0 0 158.84 208"><defs><style>.cls-1{fill:url(#Degradado_sin_nombre_557);}.cls-2{fill:url(#Degradado_sin_nombre_557-2);}.cls-3{fill:url(#Degradado_sin_nombre_557-3);}.cls-4,.cls-5{opacity:0.48;}.cls-4{fill:url(#Degradado_sin_nombre_494);}.cls-5{fill:url(#Degradado_sin_nombre_493);}</style><linearGradient id="Degradado_sin_nombre_557" x1="1.53" y1="23.32" x2="31.24" y2="9.46" gradientUnits="userSpaceOnUse"><stop offset="0" stop-color="#57b0ca"/><stop offset="1" stop-color="#dff2fd"/></linearGradient><linearGradient id="Degradado_sin_nombre_557-2" x1="0.19" y1="100.73" x2="50.57" y2="77.24" xlink:href="#Degradado_sin_nombre_557"/><linearGradient id="Degradado_sin_nombre_557-3" x1="22.2" y1="142.98" x2="161.89" y2="77.84" xlink:href="#Degradado_sin_nombre_557"/><linearGradient id="Degradado_sin_nombre_494" x1="35.4" y1="120.57" x2="41.96" y2="120.57" gradientUnits="userSpaceOnUse"><stop offset="0" stop-color="#4799ae" stop-opacity="0"/><stop offset="1"/></linearGradient><linearGradient id="Degradado_sin_nombre_493" x1="70.59" y1="128.27" x2="89.5" y2="128.27" gradientUnits="userSpaceOnUse"><stop offset="0.02"/><stop offset="0.14" stop-color="#152d33" stop-opacity="0.7"/><stop offset="0.98" stop-color="#4594a9" stop-opacity="0.02"/></linearGradient></defs><g id="Capa_2" data-name="Capa 2"><g id="Icono"><circle class="cls-1" cx="16.39" cy="16.39" r="16.39"/><path class="cls-2" d="M40.47,105.83c-5.51-5.15-7.69-12.47-7.69-20.6V39.08H1.26V91.39h0a52.33,52.33,0,0,0,40.7,51Z"/><path class="cls-3" d="M99.89,25.21c-32.76-.16-59.55,27.56-59.55,60.32,0,3.8,0,6.91.08,11.45l.06,8.86L42,142.4l.26,43.54L70.59,208V146.23l0-2.52h27.9c32.84,0,60.55-26.88,60.3-59.72A59.27,59.27,0,0,0,99.89,25.21Zm-1,87.61H71.19l0-1.89V85.1c0-15.6,12.33-28.76,27.94-29A28.35,28.35,0,0,1,128,84.89C127.71,100.5,114.55,112.82,98.94,112.82Z"/><path class="cls-4" d="M40.47,105.83S38,104.2,35.4,98.74L36.91,141,42,142.4Z"/><path class="cls-5" d="M71.19,112.82H87l2.47,30.89H70.59"/></g></g></svg>